<?xml version="1.0" encoding="UTF-8"?>
<svg xmlns="http://www.w3.org/2000/svg" xmlns:xlink="http://www.w3.org/1999/xlink" width="507pt" height="490pt" viewBox="0 0 507 490" version="1.1">
<g id="surface1">
<path style=" stroke:none;fill-rule:evenodd;fill:rgb(53.125%,75%,92.96875%);fill-opacity:1;" d="M 411.542969 264.160156 L 505.082031 215.976562 L 350.128906 142.59375 L 350.128906 169.742188 L 411.542969 198.96875 "/>
<path style=" stroke:none;fill-rule:evenodd;fill:rgb(53.125%,75%,92.96875%);fill-opacity:1;" d="M 3.367188 275.5 L 204.621094 369.039062 L 352.015625 292.507812 L 252.871094 242.871094 L 158.070312 294.335938 L 158.132812 200.101562 L 154.164062 197.328125 "/>
<path style=" stroke:none;fill-rule:evenodd;fill:rgb(93.359375%,99.609375%,99.609375%);fill-opacity:1;" d="M 252.808594 125.269531 L 253.121094 243.566406 L 351.890625 292.632812 L 252.808594 343.53125 L 252.808594 366.207031 L 408.707031 437.070312 L 411.542969 198.96875 "/>
<path style=" stroke:none;fill-rule:evenodd;fill:rgb(93.359375%,99.609375%,99.609375%);fill-opacity:1;" d="M 96.90625 51.570312 L 96.90625 227.3125 L 153.597656 196.132812 L 159.269531 198.96875 L 159.269531 105.429688 L 187.613281 91.253906 "/>
<path style=" stroke:none;fill-rule:evenodd;fill:rgb(0.39978%,35.888672%,78.514099%);fill-opacity:1;" d="M 159.644531 106.121094 L 159.015625 294.460938 L 253.5 242.996094 L 253.5 123.128906 L 350.503906 169.109375 L 350.503906 4.707031 "/>
<path style=" stroke:none;fill-rule:evenodd;fill:rgb(0.39978%,35.888672%,78.514099%);fill-opacity:1;" d="M 158.953125 346.929688 L 158.386719 485.320312 L 326.570312 399.023438 L 253.5 365.640625 L 253.5 343.59375 L 204.746094 367.90625 "/>
<path style="fill:none;stroke-width:37.794;stroke-linecap:butt;stroke-linejoin:miter;stroke:rgb(17.993164%,17.210388%,68.75%);stroke-opacity:1;stroke-miterlimit:10;" d="M 1591.40625 1428.789062 L 1588.90625 34.179688 L 3246.796875 909.765625 " transform="matrix(0.1,0,0,-0.1,0,490)"/>
<path style="fill:none;stroke-width:37.794;stroke-linecap:butt;stroke-linejoin:miter;stroke:rgb(17.993164%,17.210388%,68.75%);stroke-opacity:1;stroke-miterlimit:10;" d="M 1592.695312 2898.359375 L 1533.476562 2931.757812 L 34.296875 2138.046875 L 2049.960938 1224.726562 L 3548.515625 1974.921875 " transform="matrix(0.1,0,0,-0.1,0,490)"/>
<path style="fill:none;stroke-width:37.794;stroke-linecap:butt;stroke-linejoin:miter;stroke:rgb(17.993164%,17.210388%,68.75%);stroke-opacity:1;stroke-miterlimit:10;" d="M 960.273438 2623.085938 L 959.609375 4422.070312 L 1854.726562 3977.382812 " transform="matrix(0.1,0,0,-0.1,0,490)"/>
<path style="fill:none;stroke-width:37.794;stroke-linecap:butt;stroke-linejoin:miter;stroke:rgb(17.993164%,17.210388%,68.75%);stroke-opacity:1;stroke-miterlimit:10;" d="M 2531.875 3663.671875 L 4109.765625 2912.851562 L 4109.765625 519.21875 L 2541.289062 1231.015625 " transform="matrix(0.1,0,0,-0.1,0,490)"/>
<path style="fill:none;stroke-width:37.794;stroke-linecap:butt;stroke-linejoin:miter;stroke:rgb(17.993164%,17.210388%,68.75%);stroke-opacity:1;stroke-miterlimit:10;" d="M 4103.476562 2276.640625 L 5029.414062 2749.0625 L 3493.710938 3477.851562 " transform="matrix(0.1,0,0,-0.1,0,490)"/>
<path style="fill:none;stroke-width:37.794;stroke-linecap:butt;stroke-linejoin:miter;stroke:rgb(17.993164%,17.210388%,68.75%);stroke-opacity:1;stroke-miterlimit:10;" d="M 3493.710938 3203.867188 L 3491.835938 4856.71875 L 1590.15625 3845.078125 L 1590.15625 1968.007812 " transform="matrix(0.1,0,0,-0.1,0,490)"/>
</g>
</svg>
