<?xml version="1.0" encoding="UTF-8" standalone="no"?>
<!-- Created with Inkscape (http://www.inkscape.org/) -->

<svg
   xmlns:dc="http://purl.org/dc/elements/1.1/"
   xmlns:cc="http://creativecommons.org/ns#"
   xmlns:rdf="http://www.w3.org/1999/02/22-rdf-syntax-ns#"
   xmlns:svg="http://www.w3.org/2000/svg"
   xmlns="http://www.w3.org/2000/svg"
   version="1.1"
   width="5851"
   height="1423"
   id="svg2">
  <metadata
     id="metadata8">
    <rdf:RDF>
      <cc:Work
         rdf:about="">
        <dc:format>image/svg+xml</dc:format>
        <dc:type
           rdf:resource="http://purl.org/dc/dcmitype/StillImage" />
        <dc:title></dc:title>
      </cc:Work>
    </rdf:RDF>
  </metadata>
  <defs
     id="defs6" />
  <path
     d="m 466,1250.2501 c 0,-136.8062 -0.26076,-173.1891 -1.25,-174.4079 C 463.74536,1074.6044 329.68536,996.95875 105.985,868.0506 22.568121,819.98133 1.0112496,807.44231 1.0059601,806.9873 c -0.00328,-0.28199 66.6614459,-38.98199 148.1438299,-86 81.48239,-47.01802 148.75739,-86.08194 149.5,-86.80873 C 299.77677,633.07562 300,588.47746 300,364.42857 300,144.32034 300.23491,96 301.30498,96 c 0.71775,0 67.65525,38.75314 148.75,86.11809 131.65435,76.89525 147.71276,86.01598 149.94502,85.16462 1.375,-0.52441 78.1,-44.60854 170.5,-97.96473 92.4,-53.35619 173.85,-100.376843 181,-104.490339 7.15,-4.113495 34.92335,-20.157507 61.7186,-35.653361 C 1040.0138,13.678426 1062.1763,1 1062.4686,1 1062.7608,1 1063,78.3449 1063,172.87756 c 0,136.29043 0.2588,172.08911 1.25,172.89932 0.6875,0.56198 104.3,60.49989 230.25,133.19537 125.95,72.69547 229.6482,132.80506 230.4405,133.57686 0.7922,0.7718 1.2422,1.59694 1,1.83365 -0.4173,0.40773 -20.9702,12.32765 -210.4405,122.04806 -43.45,25.16147 -80.6875,46.83924 -82.75,48.17284 l -3.75,2.42472 0,268.09282 c 0,254.912 -0.086,268.0602 -1.75,267.4308 -0.9625,-0.364 -67.2119,-38.4983 -147.221,-84.7428 -130.61821,-75.4961 -145.72914,-83.9818 -147.99996,-83.1103 -1.72061,0.6604 -449.2819,258.4277 -465.27904,267.9717 -0.4125,0.2461 -0.75,-77.3431 -0.75,-172.4205 z M 705.34825,1266 C 821.20211,1199.175 915.99351,1143.9809 915.99582,1143.3465 915.99987,1142.2301 766.80267,1056 764.86699,1056 c -0.7922,0 -55.05662,31.6268 -124.36699,72.4844 -41.93309,24.7191 -40.49226,23.9598 -43.345,22.842 -1.46025,-0.5722 -27.59776,-15.4816 -58.08335,-33.1322 -30.48559,-17.6505 -55.79809,-31.8633 -56.25,-31.584 -0.95836,0.5923 -1.13548,305.7426 -0.17802,306.7001 0.80522,0.8052 -23.08344,14.4613 222.70462,-127.3103 z M 1212.7515,968.25 1212.5,642.5 1135,598.1842 C 1092.375,573.81051 1026.225,535.73278 988,513.56702 878.15498,449.87052 777.10447,391.84008 775.13619,391.32536 c -1.73198,-0.45292 -1.83111,5.82879 -2.45726,155.71376 -0.36507,87.38725 -0.27156,156.8664 0.21228,157.73097 0.47562,0.84988 66.73217,39.27606 147.23678,85.3915 80.50461,46.11544 147.46491,84.6566 148.80071,85.64701 l 2.4287,1.80075 -2.9287,2.04608 c -1.6108,1.12534 -38.4787,22.55547 -81.9287,47.62249 -130.8179,75.47098 -201.98297,117.26828 -202.24784,118.78578 -0.16625,0.9525 26.76259,16.9304 79.94839,47.4363 44.10949,25.3 82.22101,47.35 84.69227,49 9.62966,6.4295 260.70918,151.3349 262.35868,151.415 1.6658,0.081 1.7392,-15.8626 1.5,-325.665 z m -531.85775,117.3826 c 44.33344,-26.0521 83.30625,-48.7544 86.60625,-50.4495 15.15898,-7.7869 269,-156.92675 269,-158.04628 0,-1.0367 -270.74026,-157.12007 -272.56072,-157.13288 -0.30839,-0.002 -67.12938,38.43056 -148.4911,85.40607 C 534.08647,852.38551 467.1763,890.60896 466.7589,890.35099 466.34151,890.09303 466,815.6444 466,724.9096 466,579.93253 465.82002,559.86816 464.51504,559.3674 462.60208,558.63333 35.5,805.12738 35.5,806.96548 c 0,1.37939 560.86138,325.90132 563.39375,325.98722 0.76656,0.026 37.66656,-21.268 82,-47.3201 z M 587.60147,802.44876 C 643.64566,770.09988 703.9,735.33536 721.5,725.19429 c 17.6,-10.14108 32.5625,-19.14442 33.25,-20.00744 0.98899,-1.24146 1.25,-37.20108 1.25,-172.21131 0,-93.85322 0.28205,-170.92426 0.62678,-171.26899 0.34474,-0.34473 1.84095,0.001 3.32493,0.76848 1.48397,0.76739 66.01795,38.09944 143.40885,82.96011 C 980.75145,490.29581 1044.4314,527 1044.8716,527 c 1.3401,0 2.1266,-114.87408 2.1275,-310.75 7e-4,-148.350083 -0.2535,-186.243784 -1.2491,-186.219454 -0.6875,0.0168 -127.7,73.054904 -282.25,162.306904 l -281,162.27636 -0.25194,253.81023 c -0.24488,246.69332 -0.19998,253.79665 1.60146,253.32556 1.01938,-0.26657 47.70775,-26.95195 103.75195,-59.30084 z M 1362.8033,690.02584 c 71.6082,-41.51079 130.1872,-75.93579 130.1755,-76.5 -0.012,-0.56421 -28.4741,-17.42264 -63.25,-37.46318 C 1394.953,556.02212 1352.325,531.43166 1335,521.41718 1138.6473,407.91827 1065.4772,365.98663 1064.4584,366.37761 c -0.9332,0.35808 -1.3205,19.95509 -1.6757,84.79405 -0.2541,46.38059 -0.1186,84.99832 0.3011,85.81719 0.4197,0.81887 37.81,22.6608 83.0896,48.53762 l 82.3266,47.04877 0.2488,65.46238 c 0.1368,36.00431 0.4729,66.05814 0.7469,66.78629 0.2741,0.72815 1.0861,1.17815 1.8045,1 0.7185,-0.17815 59.8948,-34.28728 131.5031,-75.79807 z M 390.63071,581.36794 c 39.52811,-22.89763 72.65455,-42.31534 73.61432,-43.15048 1.63398,-1.42181 1.76124,-7.62412 2,-97.47239 L 466.5,344.79112 523.22945,312.14556 c 34.78359,-20.01658 56.64069,-33.1657 56.5,-33.9901 C 579.44364,276.48068 318.16521,123.77986 316.91133,124.5548 316.36684,124.89132 316,225.32369 316,374.05902 316,585.11438 316.21013,623 317.38071,623 c 0.75939,0 33.72189,-18.73443 73.25,-41.63206 z M 5390,1373.4977 c -16.734,-3.7249 -24.9265,-9.1351 -30.3916,-20.07 -2.577,-5.1561 -5.2346,-18.3535 -4.2254,-20.9833 0.4439,-1.1568 3.1452,-1.4444 13.5666,-1.4444 l 13.0123,0 0.6193,2.75 c 2.6284,11.6706 4.6334,15.1618 11.0415,19.2257 6.1911,3.9263 13.8987,5.4063 24.5792,4.7197 17.5816,-1.1301 27.0684,-9.3037 30.6681,-26.4229 1.3189,-6.2722 2.7312,-33.2725 1.7403,-33.2725 -0.3837,0 -3.0405,2.3897 -5.904,5.3105 -5.902,6.0201 -15.0591,10.9981 -23.4266,12.7352 -8.8683,1.8411 -30.3597,0.7383 -37.7797,-1.9386 -8.835,-3.1874 -15.9447,-8.3542 -21.1628,-15.3798 -8.9439,-12.0417 -13.043,-24.8039 -14.0451,-43.7273 -1.3391,-25.2893 5.3868,-45.7761 19.4102,-59.1223 10.2719,-9.7759 21.6529,-14.5276 37.3007,-15.5734 16.9931,-1.1358 30.4713,3.2373 41.0362,13.3145 6.6896,6.3808 6.7821,6.3278 7.1885,-4.1188 l 0.2723,-7 11.9803,0 11.9803,0 -0.3118,67 c -0.3893,83.636 -0.8051,89.3461 -7.4131,101.8126 -5.2843,9.9691 -15.5346,17.3999 -29.4067,21.318 -8.2214,2.3221 -41.2371,2.8909 -50.329,0.8671 z m 40.4097,-79.3787 c 9.3185,-4.5874 16.1245,-13.2071 19.2306,-24.355 2.0809,-7.4684 2.9026,-28.8062 1.4374,-37.3228 -2.451,-14.2465 -9.4106,-24.0892 -20.971,-29.6588 -5.6861,-2.7395 -7.9518,-3.2404 -16.2602,-3.5951 -12.1501,-0.5187 -17.8198,1.185 -24.7862,7.4484 -9.3627,8.4179 -14.2265,22.9015 -14.2265,42.3643 0,33.1595 13.5297,49.6459 39.9115,48.6339 7.939,-0.3046 10.1522,-0.8012 15.6644,-3.5149 z M 4059,1370.4213 c 0,-0.8684 4.275,-12.3779 9.5,-25.5769 5.225,-13.1989 9.5,-24.4929 9.5,-25.0978 0,-0.9013 -40.5907,-98.8803 -52.6488,-127.0852 -1.8432,-4.3113 -3.3512,-8.4861 -3.3512,-9.2775 0,-1.1971 2.3799,-1.3922 14.1672,-1.1614 l 14.1672,0.2775 20.7613,52.3785 c 11.4187,28.8081 21.1926,52.8098 21.7199,53.3371 0.5273,0.5273 1.1829,0.582 1.457,0.1215 0.2741,-0.4604 9.8201,-24.0121 21.2133,-52.3371 11.3932,-28.325 21.1748,-52.0625 21.737,-52.75 0.7214,-0.8824 4.8093,-1.25 13.8995,-1.25 11.0617,0 12.8776,0.2225 12.8776,1.5776 0,0.8677 -13.437,32.0302 -29.86,69.25 -16.423,37.2198 -34.0235,78.4724 -39.1121,91.6724 -5.0886,13.2 -9.6675,24.7875 -10.1752,25.75 -0.8037,1.5237 -2.535,1.75 -13.3879,1.75 -10.6895,0 -12.4648,-0.2249 -12.4648,-1.5787 z m -2182,-47.848 c -15.9305,-4.4178 -25.9565,-13.3336 -30.1518,-26.8132 -4.7703,-15.327 -0.3623,-32.0943 11.6518,-44.3213 12.0608,-12.2745 26.3781,-16.5073 57.5,-16.9995 l 19.5,-0.3084 -0.05,-9.8967 c -0.059,-11.7545 -1.9387,-17.6998 -7.0011,-22.1447 -7.2707,-6.3837 -26.1097,-8.3235 -36.0201,-3.7087 -5.9673,2.7786 -11.1653,8.6386 -12.0574,13.593 -1.2683,7.0436 -1.2337,7.0262 -13.9383,7.0262 -13.4257,0 -13.4412,-0.013 -11.5273,-9.4077 3.033,-14.8873 13.0286,-24.2306 31.2766,-29.2352 8.9661,-2.459 32.8296,-2.4887 41.8173,-0.052 15.7538,4.2712 24.8994,10.7371 29.6081,20.933 l 2.8919,6.2618 0.1185,53.5 c 0.065,29.425 0.2901,54.625 0.5,56 l 0.3815,2.5 -10.6007,0.2823 c -12.5842,0.3352 -12.7654,0.211 -13.7267,-9.397 -0.3699,-3.6978 -1.1643,-6.8861 -1.7652,-7.0852 -0.6009,-0.199 -2.361,1.4685 -3.9113,3.7055 -4.1273,5.9558 -13.5554,12.6235 -21.1789,14.9781 -7.6178,2.353 -25.7983,2.6746 -33.3172,0.5896 z m 39.4764,-22.487 c 12.2703,-6.0407 17.029,-14.4877 18.6935,-33.182 1.3767,-15.4627 1.9127,-14.9172 -14.611,-14.8694 -20.3628,0.059 -33.3898,3.4877 -42.0115,11.0576 -13.7109,12.0383 -7.8974,34.4342 10.2732,39.5769 2.8541,0.8078 7.9216,1.1722 12.9913,0.9343 6.7982,-0.3191 9.4688,-0.9596 14.6645,-3.5174 z m 380.0236,22.4162 c -3.85,-0.7243 -9.0058,-2.0467 -11.4573,-2.9385 -15.5281,-5.649 -27.7797,-20.5229 -33.3009,-40.4283 -1.8192,-6.5587 -2.1153,-10.3157 -2.0994,-26.6357 0.017,-17.2963 0.2528,-19.8746 2.6314,-28.7537 3.5786,-13.3585 7.5596,-20.3839 16.2041,-28.5954 13.4189,-12.7466 25.4818,-16.6751 48.8157,-15.8978 11.2809,0.3759 15.4878,0.9304 20.4292,2.6927 14.4143,5.141 24.8382,15.1695 30.1996,29.0542 3.6456,9.4412 4.9486,16.4861 5.7356,31.0107 0.5142,9.4921 0.3638,11.7263 -0.858,12.7403 -1.1173,0.9273 -13.3836,1.2934 -49.8908,1.4893 l -48.4092,0.2597 0.2351,6.5 c 0.6708,18.5445 8.933,33.2589 22.0892,39.3391 3.9391,1.8205 6.4978,2.1609 16.2417,2.1609 10.8886,0 11.9109,-0.1763 17.457,-3.0104 7.2019,-3.6802 11.7342,-9.3042 14.3369,-17.7901 l 1.9014,-6.1995 11.7862,-0.2832 c 6.4824,-0.1557 12.2039,0.1346 12.7145,0.6452 1.2586,1.2586 -0.9626,11.3045 -3.9233,17.7439 -1.2969,2.8208 -5.1427,7.9288 -8.5931,11.4137 -13.8852,14.0235 -38.0519,20.0348 -62.2456,15.4829 z m 48.9182,-85.1095 c 1.8847,-0.7232 2.0329,-4.5856 0.4949,-12.905 -1.4681,-7.9419 -4.3007,-13.6361 -9.2666,-18.6277 -5.4099,-5.4381 -11.1563,-7.9022 -19.9792,-8.5674 -16.6867,-1.258 -30.6408,6.6447 -37.2345,21.0871 -2.8655,6.2762 -4.6659,16.5848 -3.2084,18.37 0.7793,0.9545 8.8906,1.25 34.3163,1.25 18.3126,0 34.0075,-0.2731 34.8775,-0.607 z m 341.8463,85.0654 c -18.5899,-5.0065 -30.1402,-18.3861 -31.0687,-35.9895 -0.7791,-14.7709 4.1119,-26.9089 14.8042,-36.7395 11.8445,-10.8899 26.593,-14.9202 56,-15.303 l 19.5,-0.2538 -0.1957,-10.5693 c -0.1472,-7.9537 -0.6746,-11.652 -2.1311,-14.9447 -3.7237,-8.418 -12.5899,-12.6586 -26.4661,-12.6586 -9.9232,0 -14.6043,1.3642 -19.7267,5.7488 -4.6573,3.9864 -5.793,5.865 -7.3439,12.1476 l -1.1365,4.6036 -12.3958,0.2819 -12.3958,0.282 0.6476,-6.196 c 1.7121,-16.3806 12.206,-27.1467 31.644,-32.465 9.1554,-2.5049 32.9173,-2.5602 42,-0.098 15.7702,4.2756 24.9144,10.7446 29.5897,20.933 l 2.8735,6.2618 0.093,54 c 0.051,29.7 0.2845,54.9 0.5184,56 0.4028,1.8942 -0.1707,2.015 -10.8434,2.2829 -8.4658,0.2126 -11.3857,-0.036 -11.7387,-1 -0.2584,-0.7056 -0.8978,-4.3682 -1.4209,-8.1392 -0.523,-3.771 -1.2269,-7.1322 -1.5642,-7.4695 -0.3372,-0.3373 -1.8244,0.9481 -3.3047,2.8563 -6.2792,8.0942 -13.6431,13.3689 -22.5419,16.1468 -7.1864,2.2433 -25.5368,2.3978 -33.3964,0.2811 z m 40.5552,-22.589 c 7.4062,-3.7781 13.0634,-10.209 15.7195,-17.8694 0.8582,-2.475 1.9933,-9.675 2.5226,-16 0.8667,-10.3582 0.7932,-11.6241 -0.7409,-12.75 -2.3262,-1.7073 -23.5588,-1.5836 -33.5355,0.1954 -19.1528,3.4152 -29.7415,12.8693 -29.7415,26.5546 0,7.1338 2.5555,12.6453 8.0396,17.3395 6.0799,5.2042 11.5014,6.7315 22.2738,6.2748 7.665,-0.3249 9.7464,-0.829 15.4624,-3.7449 z m 410.6803,22.6331 c -3.85,-0.7243 -9.0058,-2.0467 -11.4573,-2.9385 -15.2066,-5.5321 -25.3886,-18.7976 -26.2225,-34.1639 l -0.3202,-5.9001 12.3594,-0.2817 c 7.5599,-0.1722 12.849,0.1248 13.6203,0.7649 0.6935,0.5755 1.5115,2.9144 1.8177,5.1974 0.837,6.24 5.2831,11.7998 12.246,15.3135 5.5938,2.8228 6.6586,3.0059 17.4833,3.0059 10.3988,0 12.0125,-0.25 16.4908,-2.5546 6.7299,-3.4634 10.6723,-9.1891 11.2673,-16.3642 0.5777,-6.9662 -0.1098,-9.6335 -3.3072,-12.8309 -4.0273,-4.0273 -8.051,-5.4901 -30.7753,-11.1882 -23.6586,-5.9324 -32.4882,-9.5886 -39.4162,-16.3218 -6.8971,-6.7033 -8.7861,-11.8074 -8.7861,-23.7403 0,-8.7568 0.3332,-10.7109 2.6801,-15.7181 7.8991,-16.8532 25.5197,-25.8023 50.7299,-25.7645 13.8806,0.021 23.0844,1.8081 32.6132,6.3333 13.5577,6.4385 19.5254,14.6734 19.8192,27.3483 l 0.1576,6.801 -12.5,0 -12.5,0 -1.1751,-4.7607 c -1.8424,-7.4647 -4.771,-11.3212 -10.859,-14.2998 -4.7699,-2.3337 -6.6187,-2.6532 -15.1982,-2.6264 -18.2971,0.057 -28.2677,6.8074 -28.2677,19.1377 0,5.1818 2.0484,9.2373 6.2489,12.3718 3.893,2.905 8.0289,4.2316 30.1105,9.6579 28.4577,6.9932 36.9706,11.3015 43.3474,21.9377 13.0091,21.6985 0.513,51.065 -25.0948,58.9745 -13.2568,4.0946 -31.5845,5.1549 -45.112,2.6098 z m 309.0122,-0.1166 c -20.9992,-5.0765 -38.1038,-21.5008 -44.6621,-42.8859 -3.1142,-10.1548 -4.4111,-25.8701 -3.068,-37.177 2.5599,-21.5497 7.4731,-32.7853 19.6243,-44.8768 14.575,-14.5034 27.424,-18.9078 53.0936,-18.1997 18.0314,0.4974 24.9794,2.4508 36.4915,10.2595 12.5179,8.4909 20.6818,20.4879 25.1741,36.994 1.8226,6.6966 2.1789,10.6883 2.1868,24.5 0.01,15.1496 -0.2151,17.2366 -2.7331,25.5 -3.7641,12.3527 -8.6794,20.7309 -17.0376,29.0408 -8.2539,8.2062 -17.7223,13.5539 -29.1912,16.4872 -9.459,2.4192 -30.5677,2.6086 -39.8783,0.3579 z m 30.2518,-18.8109 c 11.3852,-3.0309 20.2184,-10.8968 25.7403,-22.9217 4.4814,-9.7589 5.8384,-17.0303 5.814,-31.1533 -0.035,-20.1381 -4.4824,-32.8795 -14.7543,-42.2675 -7.2968,-6.6688 -14.0988,-9.2325 -24.4962,-9.2325 -28.7304,0 -45.7915,22.4456 -43.7063,57.5 0.9667,16.2517 5.1571,28.2634 12.9477,37.114 9.2408,10.4981 24.1886,14.7587 38.4548,10.961 z m 451.2777,18.895 c -11.0903,-2.0067 -22.4743,-8.0097 -29.4235,-15.5156 -6.6782,-7.2133 -12.7021,-19.1553 -15.11,-29.9544 -3.4449,-15.4505 -3.0108,-37.1775 1.0755,-53.8311 2.8723,-11.7061 6.9334,-18.9034 15.3985,-27.2902 12.6413,-12.5243 24.5695,-16.8895 46.0817,-16.8639 20.2711,0.024 32.3027,4.1831 42.947,14.8458 10.4648,10.4829 15.7016,25.5013 16.6986,47.8894 0.3245,7.2875 0.4102,13.3519 0.1903,13.4764 -0.2199,0.1245 -22.6748,0.462 -49.8998,0.75 l -49.5,0.5236 0.3141,6.5 c 0.9077,18.7862 8.6333,32.5183 22.0498,39.1934 4.0663,2.0231 6.111,2.3066 16.6361,2.3066 10.4544,0 12.5302,-0.2836 16.1165,-2.2022 8.8124,-4.7144 14.2784,-11.8184 16.1916,-21.0437 l 0.7785,-3.7541 12.7067,-0.2799 c 14.7683,-0.3253 14.1671,-0.9436 10.8195,11.1292 -2.3742,8.5618 -7.7774,16.4794 -15.5233,22.7469 -13.577,10.9856 -36.2983,15.3996 -58.5478,11.3738 z m 50.3216,-92.47 c -0.182,-9.9804 -3.1944,-17.8837 -9.0475,-23.7368 -6.8824,-6.8824 -11.9046,-8.7232 -23.8158,-8.7293 -8.8953,0 -10.6887,0.3114 -16.2343,2.86 -11.1575,5.1277 -19.4169,16.5329 -20.8591,28.8038 -1.128,9.5976 -4.1537,8.8638 35.317,8.5653 l 34.7764,-0.263 -0.1367,-7.5 z m 412.1367,92.5855 c -18.4627,-3.5895 -31.1167,-12.9314 -39.1654,-28.9139 -5.3375,-10.5988 -7.4398,-20.0759 -8.0239,-36.1716 -1.0923,-30.1002 5.2552,-49.7948 20.4931,-63.5843 12.1971,-11.0378 23.5864,-14.9157 43.8069,-14.9157 14.4768,0 20.4112,1.0828 29.8893,5.4535 12.7867,5.8964 20.8922,15.4708 25.8605,30.5465 4.1412,12.5665 6.2009,37.4592 3.2987,39.8679 -0.9338,0.775 -16.0321,1.1915 -49.75,1.3724 l -48.4092,0.2597 0.2843,6.5 c 0.8017,18.3275 8.5395,32.5866 20.9887,38.6774 4.8324,2.3642 7.2289,2.8444 15.7145,3.1488 8.2901,0.2973 10.9586,0 15.5125,-1.7133 10.0023,-3.7687 15.6876,-10.2667 18.4722,-21.1129 l 1.1554,-4.5 12.2057,-0.2809 c 9.7013,-0.2233 12.3154,0 12.7401,1.1117 0.8792,2.291 -2.4632,14.8055 -5.2028,19.4802 -6.2011,10.5814 -19.144,19.9051 -32.8706,23.679 -8.1676,2.2456 -28.0556,2.8344 -37,1.0955 z m 49.4026,-85.5041 c 1.9275,-1.2204 0.7808,-13.1799 -1.9682,-20.5273 -2.5057,-6.697 -9.1916,-13.8677 -15.7148,-16.8543 -3.8313,-1.7541 -6.6017,-2.1618 -14.7196,-2.1659 -8.8953,0 -10.6887,0.3114 -16.2343,2.86 -11.1402,5.1198 -19.7297,17.0126 -20.9706,29.0355 -0.9577,9.2796 -3.8024,8.5726 34.4235,8.5553 18.5798,-0.01 34.4126,-0.4149 35.184,-0.9033 z m 551.3129,84.9 c -17.4752,-4.5786 -31.6075,-15.8143 -39.0757,-31.067 -5.9824,-12.2181 -7.3393,-18.2448 -7.8611,-34.9144 -0.3726,-11.9043 -0.094,-16.2491 1.5582,-24.2709 5.4135,-26.2894 22.1596,-44.4622 46.7726,-50.7571 5.759,-1.4729 11.0461,-1.972 20.8905,-1.972 22.6192,0 35.1523,4.6462 48.5278,17.9901 5.5405,5.5274 8.5301,9.5495 11.3249,15.2363 9.9356,20.2161 10.6012,51.6291 1.5527,73.2736 -7.8294,18.7285 -24.9025,32.8471 -44.8285,37.0711 -9.7583,2.0686 -29.8806,1.7632 -38.8614,-0.5897 z m 29.5759,-18.0202 c 11.8693,-2.7379 20.6663,-10.0244 26.5713,-22.009 5.1574,-10.4675 7.0307,-21.2537 6.3307,-36.4522 -1.0613,-23.0445 -8.5149,-37.2216 -23.477,-44.6543 -4.1236,-2.0485 -6.1646,-2.3432 -16.2374,-2.3443 -10.9378,0 -11.8496,0.1603 -18.0106,3.1934 -8.5576,4.2129 -15.3012,11.0804 -19.4477,19.8052 -4.3995,9.2572 -5.5207,15.2258 -5.5207,29.3893 0,17.1282 3.7012,30.4263 11.0378,39.6583 9.1766,11.5472 24.2408,16.7613 38.7536,13.4136 z m 208.4241,18.0202 c -10.6904,-2.8009 -20.6607,-8.4347 -28.2808,-15.9803 -7.656,-7.5811 -10.949,-13.1096 -15.1896,-25.5011 -2.7735,-8.1043 -3.1224,-10.4928 -3.5062,-24 -0.3531,-12.4254 -0.073,-16.7164 1.6337,-25 5.3729,-26.0821 22.1738,-44.2458 46.7369,-50.528 5.759,-1.4729 11.0461,-1.972 20.8905,-1.972 22.6695,0 35.2741,4.6654 48.5142,17.9567 13.2146,13.2658 18.9599,29.4175 19.0564,53.5729 0.055,13.7194 -1.4704,22.4093 -5.9649,33.9869 -7.4495,19.1896 -24.6636,33.7375 -45.0288,38.0546 -9.7583,2.0686 -29.8806,1.7632 -38.8614,-0.5897 z m 37.2188,-20.8039 c 8.3362,-3.901 14.6558,-10.4082 18.9695,-19.5326 5.0591,-10.7014 6.099,-16.2907 6.074,-32.6449 -0.017,-11.0934 -0.4489,-15.9096 -1.8387,-20.5 -4.0911,-13.5129 -11.0568,-22.5048 -21.4227,-27.6543 -4.1236,-2.0485 -6.1646,-2.3432 -16.2374,-2.3443 -10.9982,0 -11.8232,0.1473 -18.178,3.2758 -11.6799,5.75 -20.0384,16.6434 -23.2612,30.3159 -1.9309,8.1915 -1.9716,28.2054 -0.076,37.1526 3.743,17.6629 15.2432,31.066 29.9185,34.869 1.7145,0.4443 6.8116,0.6512 11.3269,0.4598 6.5887,-0.2794 9.4958,-0.9501 14.7247,-3.397 z m 366.0657,21.408 c -8.5814,-1.6684 -16.3508,-4.6987 -21.9841,-8.5746 -10.2757,-7.0698 -18.8265,-20.2355 -22.6509,-34.8752 -2.8457,-10.8939 -3.5297,-31.5957 -1.4843,-44.9272 2.947,-19.2077 8.031,-29.827 19.1634,-40.0278 12.2747,-11.2475 23.692,-15.1807 44.0666,-15.1807 14.5436,0 20.3806,1.0759 30.1671,5.5605 18.6758,8.5581 28.4683,27.0459 29.8993,56.4484 0.5045,10.3666 0.3547,12.7198 -0.8749,13.7403 -1.1201,0.9296 -13.3477,1.295 -49.893,1.4911 l -48.4092,0.2597 0.3027,6.5 c 0.8603,18.4707 8.5037,32.5658 20.9829,38.6938 5.2977,2.6016 6.5895,2.8062 17.7144,2.8062 10.4544,0 12.5302,-0.2836 16.1165,-2.2022 8.8938,-4.7579 13.3211,-10.4257 15.8557,-20.2978 l 1.1554,-4.5 12.2057,-0.2809 c 9.7013,-0.2233 12.3154,0 12.7401,1.1117 0.8817,2.2976 -2.4667,14.8114 -5.2205,19.5104 -6.2566,10.676 -18.9795,19.8345 -32.8529,23.6488 -8.1676,2.2456 -28.0556,2.8344 -37,1.0955 z M 5683.331,1230 c -0.2265,-10.0495 -3.2263,-17.948 -9.0152,-23.7368 -6.8824,-6.8824 -11.9046,-8.7232 -23.8158,-8.7293 -8.8953,0 -10.6887,0.3114 -16.2343,2.86 -11.1402,5.1198 -19.7297,17.0126 -20.9706,29.0355 -0.9636,9.3363 -3.9602,8.6315 35.4285,8.3336 l 34.7764,-0.263 -0.169,-7.5 z m 87.8679,92.4965 c -9.4074,-1.7047 -20.8809,-7.1785 -26.2038,-12.5014 -2.3059,-2.3059 -5.4895,-6.964 -7.0746,-10.3513 -2.8765,-6.1468 -5.1684,-17.6246 -3.9221,-19.6412 0.4255,-0.6885 5.216,-0.9655 13.5536,-0.7838 l 12.8955,0.2812 0.7111,4.1736 c 1.3529,7.9413 6.5684,14.3627 14.6286,18.0113 4.7523,2.1512 23.8844,2.4621 29.4882,0.4792 11.5615,-4.0911 17.7902,-18.5181 12.1583,-28.1612 -2.878,-4.9278 -8.8394,-7.5461 -27.5057,-12.0806 -29.2802,-7.1128 -37.8284,-10.7504 -45.8258,-19.5009 -5.7337,-6.2736 -7.6143,-11.8414 -7.5728,-22.4214 0.053,-13.6011 5.6878,-23.9262 17.3251,-31.7477 10.4081,-6.9953 17.7644,-8.7523 36.6455,-8.7523 13.9452,0 16.9632,0.2993 23.5,2.3308 19.0137,5.9091 28.2626,15.8887 28.4237,30.6692 l 0.076,7 -12.4244,0 -12.4244,0 -1.1721,-5.2044 c -2.217,-9.8436 -8.0676,-14.6826 -19.7481,-16.3336 -15.8998,-2.2474 -30.4775,3.6798 -33.7984,13.7424 -2.5211,7.6388 0.899,15.6385 8.2998,19.4142 2.2352,1.1403 12.8848,4.2564 23.6658,6.9247 29.9356,7.4089 36.3543,10.0663 43.5481,18.029 6.4243,7.1108 8.0216,11.8695 8.0387,23.9487 0.014,9.9707 -0.1639,10.8844 -3.4046,17.4672 -7.3014,14.8312 -19.7958,22.7061 -40.4028,25.4646 -10.2183,1.3679 -22.3848,1.1916 -31.4787,-0.4563 z m -2761.5604,-1.082 c -18.9583,-4.589 -33.2229,-17.807 -39.7896,-36.8703 -5.7567,-16.7115 -6.0859,-43.7593 -0.745,-61.2057 6.7424,-22.0247 22.8413,-38.0494 42.9992,-42.8011 8.1569,-1.9227 24.5694,-1.9387 32.6572,-0.032 13.7171,3.2341 26.527,12.7703 32.074,23.8771 2.4712,4.9481 5.5595,18.1488 4.7434,20.2754 -0.3912,1.0193 -3.3986,1.3419 -12.5111,1.3419 -10.8369,0 -12.0963,-0.1869 -13.0314,-1.9343 -0.5694,-1.0638 -1.0396,-2.9763 -1.045,-4.25 -0.017,-3.9774 -4.4974,-12.1543 -8.7711,-16.0069 -5.3339,-4.8083 -9.9971,-6.1081 -20.3348,-5.6681 -11.1972,0.4765 -16.6855,3.2132 -22.9189,11.4282 -7.133,9.4004 -9.1761,16.8475 -9.7208,35.4311 -1.0645,36.3187 8.4859,55.9055 28.5575,58.5681 17.3424,2.3006 29.7127,-5.9717 34.1114,-22.811 l 1.6345,-6.2571 12.2455,-0.2809 c 14.0997,-0.3235 14.0057,-0.3856 12.2462,8.0896 -3.9832,19.1871 -18.6407,34.0996 -38.4998,39.1697 -7.4891,1.912 -25.882,1.8773 -33.9014,-0.064 z m 1526,0 c -19.7044,-4.7696 -34.1662,-18.9357 -40.5152,-39.6869 -4.5746,-14.9518 -4.832,-39.4855 -0.5862,-55.8707 6.0888,-23.4974 21.6704,-39.574 43.923,-45.3183 7.6329,-1.9704 24.0802,-1.971 32.4368,0 13.4327,3.1664 24.9716,11.5566 31.7122,23.0586 2.6487,4.5197 5.9754,18.4385 5.0089,20.9571 -0.4809,1.2533 -2.6521,1.4612 -12.8235,1.2278 l -12.2444,-0.2809 -1.7839,-6.8161 c -0.9812,-3.7488 -2.8939,-8.4495 -4.2505,-10.446 -2.9936,-4.4054 -9.5429,-8.9648 -14.1077,-9.8211 -6.0034,-1.1263 -18.6389,0.024 -22.865,2.0812 -8.0511,3.9194 -14.3677,12.6093 -18.2048,25.0447 -2.6194,8.489 -2.5964,39.909 0.036,49.4573 3.5485,12.87 9.7799,21.9273 18.0062,26.1717 2.3033,1.1884 6.7947,2.2227 11.0497,2.5445 17.0788,1.2917 28.2491,-7.125 32.0838,-24.1747 l 1.1339,-5.0415 12.1955,-0.2809 c 14.101,-0.3249 14.0616,-0.3517 12.3045,8.3977 -3.7263,18.5548 -18.5827,33.689 -38.1934,38.9079 -6.9741,1.8559 -26.4521,1.7934 -34.3162,-0.1102 z M 2030,1321.0705 c -10.3046,-1.9095 -15.9215,-5.6966 -19.3858,-13.0705 -2.0431,-4.3486 -2.131,-6.2159 -2.6142,-55.5 l -0.5,-51 -10.9406,-0.2858 c -6.0174,-0.1571 -11.5299,-0.7747 -12.25,-1.3724 -1.3566,-1.1258 -1.878,-13.1965 -0.7024,-16.26 0.5003,-1.3039 2.4769,-1.5845 11.25,-1.5971 5.8536,-0.01 11.1922,-0.3643 11.8634,-0.7907 0.8412,-0.5345 1.3073,-5.0865 1.5,-14.6472 l 0.2796,-13.8718 11.3881,-3.8111 c 6.2635,-2.0962 11.776,-3.5715 12.25,-3.2785 0.474,0.2929 0.8619,8.101 0.8619,17.3512 0,12.6913 0.3232,17.0867 1.317,17.9115 0.774,0.6424 7.0622,1.2083 15.25,1.3725 l 13.933,0.2794 0.2885,8.7213 c 0.3448,10.4221 1.6248,9.6792 -17.2885,10.0345 l -13,0.2442 0,44.5 c 0,40.6935 0.1515,44.7772 1.7708,47.7406 3.005,5.4991 5.9364,6.7025 17.6826,7.2594 l 10.5466,0.5 0.2912,8.9088 c 0.1602,4.8998 -0.1277,9.3277 -0.6398,9.8398 -1.2346,1.2346 -27.4205,1.8839 -33.1514,0.8219 z m 812,0.3078 c -10.4976,-2.0478 -16.6276,-5.9003 -20.2938,-12.7541 -2.1725,-4.0613 -2.2138,-4.91 -2.7062,-55.6242 l -0.5,-51.5 -10.9406,-0.2858 c -6.0174,-0.1571 -11.5299,-0.7747 -12.25,-1.3724 -1.3566,-1.1258 -1.878,-13.1965 -0.7024,-16.26 0.5015,-1.3069 2.4787,-1.5818 11.3775,-1.5818 7.6844,0 11.0836,-0.3771 11.8627,-1.3159 0.6353,-0.7654 1.2095,-6.9277 1.3725,-14.7294 l 0.2803,-13.4134 11.4136,-3.7285 c 6.2776,-2.0507 11.7901,-3.496 12.25,-3.2117 0.46,0.2843 0.8364,8.3568 0.8364,17.9389 0,20.5065 -2.0172,18.3491 17.5,18.7158 l 13,0.2442 0.2885,8.7213 c 0.3448,10.4221 1.6248,9.6792 -17.2885,10.0345 l -13,0.2442 0,45.1776 c 0,44.1194 0.048,45.2438 2.0711,48 3.5929,4.8963 7.7976,6.3191 18.6789,6.3208 l 9.75,0 0,9.441 c 0,5.6689 -0.4306,9.7071 -1.0777,10.107 -1.3095,0.8093 -28.4158,1.5144 -31.9223,0.8303 z m 1449,-0.069 c -10.3398,-1.7308 -17.5362,-6.4613 -20.6465,-13.5718 -1.7012,-3.8892 -1.8946,-8.4266 -2.3535,-55.2373 l -0.5,-51 -10.9406,-0.2858 c -6.0174,-0.1571 -11.5299,-0.7747 -12.25,-1.3724 -1.3566,-1.1258 -1.878,-13.1965 -0.7024,-16.26 0.5003,-1.3039 2.4769,-1.5845 11.25,-1.5971 5.8536,-0.01 11.1922,-0.3643 11.8634,-0.7907 0.8412,-0.5345 1.3073,-5.0865 1.5,-14.6472 l 0.2796,-13.8718 11.3881,-3.8111 c 6.2635,-2.0962 11.776,-3.5715 12.25,-3.2785 0.474,0.2929 0.8619,8.101 0.8619,17.3512 0,12.6913 0.3232,17.0867 1.317,17.9115 0.774,0.6424 7.0622,1.2083 15.25,1.3725 l 13.933,0.2794 0.2885,8.7213 c 0.3448,10.4221 1.6248,9.6792 -17.2885,10.0345 l -13,0.2442 0,44 c 0,48.2207 0.043,48.6113 5.8821,52.7759 2.5986,1.8536 4.8669,2.3074 13.6179,2.7241 l 10.5,0.5 0,9.5 0,9.5 -5,0.6624 c -5.4503,0.722 -23.4882,0.8183 -27.5,0.1467 z m -2692.4982,-3.5294 c -0.3032,-1.2538 -0.4276,-45.7047 -0.2765,-98.7797 l 0.2747,-96.5 24.4654,0 24.4653,0 27.1904,79.3224 c 14.9547,43.6273 27.4653,79.5973 27.8013,79.9333 0.336,0.336 1.011,0.191 1.5,-0.3224 0.489,-0.5133 13.0935,-35.7478 28.01,-78.2988 14.9165,-42.551 27.5793,-78.222 28.1396,-79.269 0.9614,-1.7965 2.267,-1.8884 23.2234,-1.6345 l 22.2046,0.269 0,98.5 0,98.5 -13,0 -13,0 -0.2556,-86.3315 c -0.1935,-65.3815 -0.5395,-86.2368 -1.4257,-85.9414 -0.6435,0.2145 -15.1535,38.6312 -32.2444,85.3704 -17.0909,46.7392 -31.4384,85.5254 -31.8833,86.1915 -0.9772,1.4627 -25.254,1.7271 -26.1455,0.2847 -0.3148,-0.5095 -13.397,-37.297 -29.0714,-81.75 C 1624.641,1141.3722 1627.0563,1148 1625.9229,1148 c -0.5399,0 -1.016,34.9731 -1.1673,85.75 l -0.2556,85.75 -12.7235,0.2797 c -12.5214,0.2752 -12.7323,0.2434 -13.2747,-2 z m 495.9709,1.0012 c -0.2686,-0.7045 -0.3723,-45.1559 -0.2305,-98.7809 l 0.2578,-97.5 12.5,0 12.5,0 0.2619,38.25 c 0.144,21.0375 0.5533,38.25 0.9096,38.25 0.3562,0 3.1876,-2.4227 6.292,-5.3838 10.088,-9.6223 21.1523,-13.6162 37.7207,-13.6162 21.3671,0 37.3782,8.1575 43.8784,22.3557 3.8251,8.3553 4.5418,20.4231 4.2248,71.1443 l -0.2874,46 -12.4211,0.2822 c -9.2652,0.2104 -12.6278,-0.044 -13.2347,-1 -0.4475,-0.7052 -0.8205,-22.3309 -0.8289,-48.0572 -0.015,-44.193 -0.1257,-47.0891 -2.0157,-52.4666 -2.6271,-7.4745 -6.5268,-12.1369 -12.9714,-15.5084 -4.5813,-2.3968 -6.3932,-2.75 -14.1049,-2.75 -6.4482,0 -10.3224,0.5516 -14.2829,2.0333 -6.0725,2.2721 -13.6719,8.4542 -17.0656,13.8831 -4.9844,7.9734 -4.9743,7.8697 -5.5402,57.0836 l -0.5346,46.5 -12.2695,0.2809 c -9.261,0.2121 -12.3893,-0.033 -12.7578,-1 z m 314.0282,-1.0003 c -0.3039,-1.2543 -0.4285,-32.2056 -0.2768,-68.7806 l 0.2759,-66.5 12.5,0 12.5,0 0.2904,8.25 c 0.1598,4.5375 0.627,8.25 1.0383,8.25 0.4113,0 2.4464,-2.0322 4.5226,-4.5159 9.0382,-10.8126 20.556,-15.4979 38.004,-15.4597 12.6117,0.028 17.5602,0.9309 25.3868,4.6335 7.0173,3.3197 11.7407,7.5023 16.017,14.183 l 3.4187,5.341 6.9826,-7.578 c 5.6871,-6.1719 8.5629,-8.361 15.5,-11.7984 8.3659,-4.1455 8.7338,-4.2275 20.6785,-4.6096 23.8728,-0.7636 38.6464,5.9782 47.9724,21.8919 5.531,9.4379 5.7308,11.9124 5.448,67.4727 l -0.2593,50.9395 -12.2233,0.2806 c -12.0078,0.2756 -12.2326,0.2403 -12.7532,-2 -0.2915,-1.2543 -0.641,-24.3306 -0.7767,-51.2806 -0.2437,-48.3791 -0.2748,-49.0523 -2.453,-53.1242 -2.6887,-5.0265 -7.16,-8.9231 -13.7938,-12.0212 -4.0687,-1.9002 -6.6763,-2.3367 -14,-2.344 -7.9708,-0.01 -9.7433,0.3413 -15.5,3.0545 -9.7491,4.5949 -14.7593,10.1753 -18.321,20.4064 -0.647,1.8588 -1.2715,21.1817 -1.6166,50.0285 l -0.5624,47 -12.5,0 -12.5,0 -0.5224,-49.5 c -0.5694,-53.945 -0.4162,-52.5234 -6.6009,-61.2778 -1.9698,-2.7883 -4.9243,-5.3076 -8,-6.8216 -4.2528,-2.0935 -6.2841,-2.4004 -15.8767,-2.3991 -9.6365,0 -11.5578,0.2951 -15.5,2.3706 -9.7404,5.1279 -16.2214,12.317 -19.1963,21.2936 -0.7045,2.1259 -1.3222,20.1869 -1.7043,49.8343 l -0.5994,46.5 -12.2233,0.2806 c -12.0022,0.2755 -12.2332,0.2393 -12.7758,-2 z m 496.9588,0.9694 c -0.2627,-0.6875 -0.3611,-31.625 -0.2187,-68.75 l 0.259,-67.5 11.9205,-0.2832 c 8.8643,-0.2106 12.1292,0.046 12.7346,1 0.9317,1.4682 1.1627,132.7915 0.2379,135.2014 -0.5065,1.32 -2.5804,1.5818 -12.5314,1.5818 -8.6181,0 -12.0568,-0.3466 -12.4019,-1.25 z m 423.0204,0.032 c -0.2649,-0.705 -0.5938,-27.3819 -0.7309,-59.2819 l -0.2492,-58 -11,-0.2466 c -16.6616,-0.3735 -15.6304,0.3031 -15.2885,-10.0321 l 0.2885,-8.7213 13,-0.5 13,-0.5 0.5786,-19 c 0.6922,-22.7322 1.8423,-26.4852 10.5565,-34.4495 8.621,-7.8791 13.9832,-9.496 31.3649,-9.4577 19.3309,0.043 19,-0.1636 19,11.8396 l 0,9.3619 -12.25,0.3529 c -13.4121,0.3863 -16.9869,1.5972 -21.132,7.158 -1.9118,2.5648 -2.0921,4.1505 -2.1045,18.5 l -0.014,15.6948 15.4578,0.2772 c 10.8303,0.1942 15.6903,0.6432 16.2347,1.5 1.3513,2.1269 0.9427,15.3657 -0.5115,16.5726 -0.7889,0.6547 -7.3203,1.2063 -16.25,1.3724 l -14.931,0.2778 -0.5,59 -0.5,59 -11.7691,0.2819 c -8.8625,0.2123 -11.8881,-0.035 -12.2508,-1 z m 248.0386,-0.032 c -0.2302,-0.6875 -0.6477,-30.275 -0.9278,-65.75 -0.2801,-35.475 -0.6402,-65.85 -0.8001,-67.5 l -0.2908,-3 12.5,0 12.5,0 0.6249,10.2916 c 0.3437,5.6604 0.8516,10.5182 1.1285,10.7952 0.277,0.2769 1.6584,-1.4669 3.0698,-3.8753 7.1434,-12.1893 20.84,-18.7115 39.2942,-18.7115 8.7691,0 8.6159,-0.2623 8.1758,14 l -0.2932,9.5 -11.5,0.5804 c -6.325,0.3192 -13.3708,1.1128 -15.6573,1.7636 -6.206,1.7662 -13.4344,7.0821 -16.5294,12.156 -5.4337,8.908 -5.8133,12.6383 -5.8133,57.1283 0,22.3895 -0.2731,41.4199 -0.607,42.2899 -0.5065,1.32 -2.5804,1.5818 -12.5314,1.5818 -8.6496,0 -12.0393,-0.3433 -12.3429,-1.25 z m 173.9544,0.032 c -0.2688,-0.705 -0.3727,-45.6069 -0.2309,-99.7819 l 0.2578,-98.5 12,0 12,0 0.2581,57.75 c 0.2022,45.2377 0.5272,57.7352 1.5,57.6818 0.6831,-0.038 10.3555,-10.05 21.4944,-22.25 11.1388,-12.2 22.2275,-24.3193 24.6415,-26.9318 l 4.3891,-4.75 15.6085,0 c 11.776,0 15.6084,0.3053 15.6084,1.2434 0,0.6839 -12.4402,13.6896 -27.6448,28.9015 -17.1357,17.1439 -27.4367,28.1707 -27.0973,29.0066 0.3011,0.7417 13.8415,18.419 30.0898,39.2829 16.2484,20.8639 29.3156,38.3014 29.0383,38.75 -0.2772,0.4486 -7.6201,0.8156 -16.3175,0.8156 l -15.8134,0 -26.7542,-36.0733 c -14.9359,-20.1385 -27.1342,-35.6934 -27.6144,-35.2132 -0.473,0.473 -0.9785,16.5935 -1.1233,35.8233 l -0.2632,34.9632 -11.7691,0.2819 c -8.8598,0.2122 -11.89,-0.035 -12.2578,-1 z m 874.9996,0 c -0.2686,-0.7045 -0.3723,-45.1559 -0.2305,-98.7809 l 0.2578,-97.5 12.5,0 12.5,0 0.2619,38.25 c 0.144,21.0375 0.5339,38.25 0.8663,38.25 0.3325,0 3.2307,-2.4314 6.4406,-5.4032 10.3649,-9.5961 21.3396,-13.5748 37.4312,-13.5702 28.3423,0.01 44.4679,11.9242 47.4793,35.0845 0.6946,5.3425 0.9872,25.8197 0.8057,56.3889 l -0.285,48 -12.5,0 -12.5,0 -0.5564,-48 c -0.5469,-47.1852 -0.5958,-48.1019 -2.881,-54 -3.0057,-7.7573 -9.8216,-14.6126 -16.3446,-16.439 -7.1171,-1.9926 -20.9849,-0.9823 -27.218,1.9831 -7.2617,3.4547 -14.7038,11.288 -17.5637,18.4869 -2.3425,5.8967 -2.3777,6.5259 -2.9038,51.969 l -0.5325,46 -12.2695,0.2809 c -9.261,0.2121 -12.3893,-0.033 -12.7578,-1 z m 165.0282,-1.0003 c -0.3039,-1.2543 -0.4285,-32.2056 -0.2768,-68.7806 l 0.2759,-66.5 12.5,0 12.5,0 0.2944,8.4944 c 0.1619,4.6719 0.6847,8.8847 1.1618,9.3618 0.4899,0.4899 2.0144,-0.8658 3.5029,-3.115 3.4454,-5.2064 9.0958,-9.67 16.8114,-13.2806 10.7863,-5.0475 21.4434,-6.1015 35.799,-3.5404 20.0269,3.5728 34.1608,17.1834 36.9882,35.6188 0.5832,3.8022 0.8781,26.4197 0.7166,54.961 l -0.2743,48.5 -12.4211,0.2822 c -9.2652,0.2104 -12.6278,-0.044 -13.2347,-1 -0.4475,-0.7052 -0.8205,-22.463 -0.8289,-48.3507 -0.017,-51.7817 -0.1968,-53.5932 -6.0222,-60.6364 -1.7568,-2.1241 -5.92,-5.1108 -9.7573,-7 -6.0707,-2.9887 -7.5319,-3.2951 -15.7144,-3.2951 -7.6283,0 -9.8777,0.4017 -14.567,2.6011 -7.549,3.5408 -12.0644,7.744 -15.6992,14.6137 -5.5621,10.5124 -5.5678,10.5665 -6.1822,58.2852 l -0.573,44.5 -12.2233,0.2806 c -12.0022,0.2755 -12.2332,0.2393 -12.7758,-2 z m 329.9718,1.0003 c -0.2686,-0.7045 -0.3723,-45.1559 -0.2305,-98.7809 l 0.2578,-97.5 12.5,0 12.5,0 0,98.5 0,98.5 -12.2695,0.2809 c -9.261,0.2121 -12.3893,-0.033 -12.7578,-1 z m 402.9988,0 c -0.2692,-0.7045 -0.3729,-31.6559 -0.2305,-68.7809 l 0.259,-67.5 12.5,0 12.5,0 0,68.5 0,68.5 -12.2695,0.2809 c -9.2606,0.2121 -12.3896,-0.033 -12.759,-1 z M 2902.4466,1148.7214 c -0.2812,-0.7328 -0.3842,-6.9324 -0.2289,-13.7769 l 0.2823,-12.4445 15,0 15,0 0,13.5 0,13.5 -14.7711,0.2769 c -11.578,0.217 -14.8816,-0.011 -15.2823,-1.0555 z m 2618.2201,0.6119 c -0.9549,-0.9548 -0.7963,-24.5808 0.1753,-26.1118 0.6113,-0.9634 4.3664,-1.2099 15.2346,-1 l 14.4234,0.2785 0.2782,13.75 0.2782,13.75 -14.8615,0 c -8.1739,0 -15.1616,-0.3 -15.5282,-0.6667 z M 2505,997.00895 c -30.9828,-8.22991 -46.069,-29.26808 -47.6927,-66.50895 -1.888,-43.30369 14.8814,-72.26383 48.1716,-83.19028 6.9778,-2.29024 9.777,-2.64357 21.5211,-2.71645 22.0483,-0.13684 33.9853,4.34327 47.5972,17.86385 12.2703,12.18794 18.0475,25.17322 20.4845,46.04288 0.5781,4.95 0.9087,12.15 0.7347,16 l -0.3164,7 -48.5,0.5 -48.5,0.5 0.1367,7.5 c 0.4111,22.55102 17.2689,35.67665 37.9318,29.53395 6.4655,-1.92207 10.8303,-5.77472 14.2002,-12.53395 l 2.7421,-5.5 18.4214,-0.27324 c 10.1317,-0.15029 18.7963,0.10177 19.2547,0.56012 1.3828,1.38282 -0.9942,11.29629 -4.3671,18.21312 -4.2208,8.65573 -13.3095,17.71584 -21.8198,21.75121 -11.2402,5.32982 -16.9297,6.42886 -35.5,6.85754 -14.6311,0.33774 -18.0451,0.11481 -24.5,-1.5998 z m 46.4085,-97.66921 c -0.2708,-18.22688 -15.1521,-30.03124 -31.9354,-25.33221 -9.3451,2.61646 -17.5689,13.11637 -19.1165,24.40734 -1.1054,8.06492 -2.5552,7.65287 25.8686,7.35235 L 2551.5,905.5 l -0.091,-6.16026 z m 262.6667,98.573 c -36.0211,-7.0672 -53.9887,-34.64369 -51.7419,-79.41274 1.3666,-27.23017 10.6888,-47.83984 27.2814,-60.31463 23.4846,-17.65632 58.1598,-18.92556 81.9699,-3.0004 18.6509,12.47445 28.6241,34.21032 28.822,62.81503 l 0.093,13.5 -48.5,0.5 -48.5,0.5 -0.3293,2.88388 c -0.503,4.40451 1.6947,15.42269 3.9921,20.01372 6.3741,12.73816 19.8493,18.35718 34.0929,14.21644 7.2164,-2.09785 11.2876,-5.58947 14.6185,-12.53734 l 2.6735,-5.5767 18.9762,0 18.9761,0 -0.2744,5 c -0.1852,3.37438 -1.5619,7.64024 -4.2344,13.12074 -7.3059,14.98214 -19.7341,23.7947 -39.199,27.79514 -8.3832,1.72292 -30.9892,2.01302 -38.717,0.49686 z m 42.3517,-99.0411 c -0.1319,-11.95074 -7.0959,-22.11912 -17.0591,-24.90866 -9.5676,-2.67875 -20.2724,0.60277 -26.7845,8.2107 -5.0181,5.86258 -9.4218,20.65446 -6.8998,23.17644 0.3759,0.3759 11.9634,0.5634 25.75,0.41667 L 2856.5,905.5 l -0.073,-6.62836 z m 804.8228,99.13116 c -36.7517,-5.18413 -63.2077,-29.02982 -72.7183,-65.5436 -6.7296,-25.83679 -5.6955,-60.76254 2.5009,-84.4592 10.8674,-31.41926 33.2736,-52.61088 63.6664,-60.21524 12.5226,-3.13321 37.0959,-3.0897 48.8013,0.0864 23.5515,6.39043 41.6394,22.05414 49.0533,42.47913 2.4385,6.718 4.6726,19.89737 3.7712,22.24651 -0.4394,1.14497 -4.5565,1.40319 -22.3725,1.40319 -12.5833,0 -22.0807,-0.39917 -22.4162,-0.94213 -0.3203,-0.51818 -1.0606,-3.55568 -1.6451,-6.75 -2.0262,-11.07227 -7.9032,-19.8206 -16.8907,-25.14298 -4.1729,-2.47116 -5.336,-2.66489 -16,-2.66489 -11.1251,0 -11.6992,0.10808 -17.6105,3.31497 -17.6908,9.59732 -26.7153,30.2534 -28.9204,66.19515 -1.6201,26.40761 4.4027,52.30348 15.0602,64.75343 17.0859,19.95948 49.575,16.55387 61.2982,-6.42545 1.1072,-2.17029 2.5559,-6.8467 3.2194,-10.39204 0.6635,-3.54533 1.3602,-7.00856 1.5483,-7.69606 0.2611,-0.9542 5.8261,-1.25 23.5172,-1.25 l 23.1752,0 -0.6831,8.19078 c -0.7474,8.96107 -4.2788,20.77001 -8.3163,27.80922 -8.9831,15.6615 -25.8902,27.86646 -45.7882,33.05375 -9.1211,2.37782 -31.7953,3.42381 -42.2503,1.94905 z m 165.6702,-0.96344 C 3802.018,990.75053 3787.7689,976.3425 3781.3883,951 c -2.885,-11.45878 -2.6424,-43.3046 0.4151,-54.5 5.8083,-21.26733 17.725,-36.39827 35.2852,-44.80274 12.6388,-6.04907 17.9878,-7.20898 32.9114,-7.13679 20.6502,0.0999 33.7703,5.14357 46.5597,17.89875 13.548,13.51173 19.435,29.08952 21.0215,55.62605 0.5657,9.46297 0.4289,11.66149 -0.7889,12.67214 -1.1055,0.91746 -13.3119,1.2877 -48.8828,1.4827 L 3820.5,932.5 l -0.3019,5.81568 c -0.6028,11.61353 5.2649,23.6412 14.2232,29.15518 4.5302,2.78837 5.643,3.02914 14,3.02914 13.242,0 19.2911,-3.55457 24.2875,-14.27176 l 2.4577,-5.27176 18.6668,0.27176 18.6667,0.27176 -0.03,5.02132 c -0.044,7.29607 -5.8263,18.96584 -12.9044,26.0439 -5.9255,5.92552 -15.5364,11.10565 -26.0652,14.04879 -9.4982,2.65506 -36.7652,2.90405 -46.5801,0.42535 z m 46.0556,-92.50979 c 1.6019,-1.93019 0.4871,-10.44186 -2.1946,-16.75662 -8.6002,-20.2512 -37.3948,-19.38621 -46.0731,1.38404 -2.5859,6.18888 -3.8867,13.92253 -2.6021,15.47036 1.7395,2.09603 49.1246,2.00495 50.8698,-0.0978 z m 397.6558,92.44169 c -24.4645,-6.16347 -38.9181,-20.84975 -45.243,-45.97126 -1.5566,-6.18269 -1.8738,-11.01283 -1.8057,-27.5 0.078,-18.7863 0.2479,-20.5439 2.8073,-28.96277 4.1208,-13.55517 8.9146,-21.87647 17.6783,-30.6864 6.2215,-6.25436 9.3251,-8.47053 17.0204,-12.15357 12.6388,-6.04907 17.9878,-7.20898 32.9114,-7.13679 19.4243,0.094 32.9645,4.95725 45.1108,16.20261 14.0883,13.0433 20.9926,30.69307 22.5289,57.59181 0.5253,9.19701 0.3767,11.38663 -0.8414,12.39755 -1.1133,0.92393 -13.212,1.29209 -48.8888,1.48767 L 4264.5,932.5 l 0.03,8.08299 c 0.027,7.07121 0.4392,8.91308 3.2951,14.7144 1.8586,3.77521 4.8604,7.95367 6.9695,9.70136 9.9314,8.22943 28.781,7.59781 37.2923,-1.24961 1.19,-1.23703 3.2697,-4.62143 4.6214,-7.5209 l 2.4577,-5.27176 18.6668,0.27176 18.6667,0.27176 -0.03,5.02132 c -0.022,3.67212 -1.0204,7.10611 -3.7151,12.78033 -4.8271,10.16442 -12.1597,17.57299 -21.9742,22.20165 -12.0135,5.66577 -17.4707,6.75157 -35.7803,7.11914 -13.8955,0.27895 -17.7421,0.0183 -24.3687,-1.65118 z m 46.2478,-91.87539 c 1.0588,-0.67063 1.2116,-2.23477 0.6576,-6.73468 -2.3716,-19.26693 -16.9613,-29.52466 -33.822,-23.77964 -5.6688,1.93155 -12.2101,8.07534 -14.6445,13.75464 -2.8682,6.6913 -4.3183,14.65997 -2.9645,16.29116 0.9087,1.09494 6.0206,1.36955 25.2667,1.35734 13.2702,-0.008 24.7482,-0.40839 25.5067,-0.88882 z M 2043.5,996.56704 c -36.629,-5.41832 -60.3664,-20.82292 -73.7287,-47.84688 -7.6613,-15.49419 -10.5042,-27.62352 -11.4192,-48.72016 -2.7782,-64.05158 29.106,-107.5846 86.0289,-117.45936 12.6981,-2.20282 35.0136,-2.03298 47.3335,0.36025 20.6735,4.01594 31.2176,9.07635 42.9124,20.59478 11.7569,11.57966 17.5528,24.11987 17.7622,38.43129 l 0.1109,7.57304 -22.4626,0 -22.4625,0 -0.686,-3 c -0.3772,-1.65 -1.1991,-5.25 -1.8264,-8 -4.3691,-19.15375 -27.3921,-29.52757 -53.3323,-24.03072 -15.1999,3.22093 -29.1997,14.54748 -36.6062,29.61635 -5.1706,10.51992 -7.6998,20.43326 -9.1021,35.67675 -2.706,29.41352 3.9163,54.76308 18.0217,68.98565 7.6868,7.75058 18.6195,13.50842 28.9611,15.25277 9.5164,1.60514 41.731,0.82562 47.9953,-1.16138 l 4.5,-1.42737 0,-21.45602 0,-21.45603 -19.5,-0.5 -19.5,-0.5 -0.2742,-16.75 -0.2742,-16.75 42.0242,0 42.0242,0 0,51.52475 0,51.52475 -2.75,1.05586 c -5.155,1.97926 -20.7289,5.83138 -30.25,7.48218 -12.9241,2.24083 -60.6716,2.87714 -73.5,0.9795 z m 610,-0.12385 C 2631.5966,991.73227 2615.4016,976.08403 2614.7485,959 l -0.2485,-6.5 19.3952,0 19.3953,0 1.3837,4.74566 c 2.8759,9.86292 12.9805,15.5375 25.8305,14.50603 11.5303,-0.92554 18.4247,-6.50659 19.2018,-15.54385 0.5351,-6.22312 -2.0633,-10.34148 -8.6217,-13.66489 -2.7431,-1.39 -14.1218,-5.01508 -25.2861,-8.05573 -23.9895,-6.53365 -32.8015,-10.47197 -39.0961,-17.47307 -7.5815,-8.43245 -9.1296,-12.7435 -9.1688,-25.53168 -0.032,-10.43049 0.1385,-11.36768 3.1998,-17.58945 5.8169,-11.82205 18.1874,-20.89364 34.7664,-25.49513 9.1598,-2.5423 33.3793,-3.07046 42.9687,-0.93703 15.6267,3.47661 27.7582,12.24017 33.1017,23.91202 2.4779,5.41228 4.6409,14.47619 3.7851,15.86085 -0.2604,0.42145 -8.9796,0.76627 -19.376,0.76627 l -18.9024,0 -1.1282,-4.1896 c -2.165,-8.04019 -9.5824,-12.79925 -19.9489,-12.79925 -7.0397,0 -12.1183,1.87183 -16.2275,5.98101 -3.2556,3.25568 -3.7725,4.39469 -3.7725,8.31347 0,3.39787 0.6362,5.29703 2.5275,7.54468 2.8402,3.37542 7.8234,5.19474 34.4725,12.58555 21.2478,5.89284 30.9449,10.57707 38.2658,18.48455 3.3993,3.67167 6.1286,7.77879 7.1496,10.75912 8.8919,25.95567 -7.8906,52.20057 -38.9154,60.85664 -8.5764,2.39287 -36.5289,2.94403 -46,0.90702 z m 2900.1328,0.06 c -18.5114,-3.8286 -30.0363,-9.82945 -42.1813,-21.96313 -7.4764,-7.46953 -9.7902,-10.5675 -13.3182,-17.83213 -6.9152,-14.23921 -9.2489,-25.08688 -9.8334,-45.70793 -0.5677,-20.02907 0.7798,-31.00291 5.6773,-46.23684 8.4166,-26.17972 28.3828,-45.49762 54.0228,-52.26859 8.464,-2.23516 34.7594,-3.14953 45.0149,-1.56529 35.9161,5.54817 59.1174,29.57876 66.6186,68.99965 2.3347,12.26946 2.1345,33.7321 -0.4344,46.57107 -7.4852,37.40988 -25.121,58.56897 -56.7484,68.08573 -7.8466,2.36105 -10.986,2.73302 -25.4507,3.01551 -11.5072,0.22474 -18.578,-0.10753 -23.3672,-1.09805 z m 31.568,-27.62757 c 24.1433,-5.12267 37.5245,-32.89725 35.4117,-73.5017 -1.414,-27.17492 -10.4453,-45.7356 -25.974,-53.38033 -17.0496,-8.39349 -37.3851,-5.32095 -50.0664,7.56467 -9.4901,9.64289 -13.6058,21.00819 -15.6265,43.15173 -3.0571,33.50083 5.7696,60.87858 23.1685,71.86204 7.8549,4.95859 21.5836,6.74429 33.0867,4.30359 z m -2631.9501,26.62483 c -15.1499,-4.2111 -24.3076,-13.41606 -28.7871,-28.93559 -1.2951,-4.48686 -1.5978,-8.33012 -1.2406,-15.74981 0.4212,-8.74648 0.8652,-10.60897 4.0797,-17.11301 2.5228,-5.10462 5.5512,-9.16523 10.0751,-13.50929 12.4944,-11.99777 29.4855,-17.49373 58.6222,-18.96204 l 14.5,-0.73071 0.3336,-5 c 1.0327,-15.47562 -6.9195,-25.5 -20.2287,-25.5 -3.0111,0 -6.7415,0.47998 -8.2898,1.06661 -5.6069,2.12438 -10.1132,8.1008 -11.2602,14.93339 l -0.5875,3.5 -20.2571,0.27078 c -23.1903,0.30999 -22.1867,0.7333 -20.3263,-8.57392 3.3797,-16.90836 15.3447,-28.44277 35.1882,-33.92201 5.0558,-1.396 10.27,-1.77485 24.4278,-1.77485 16.0908,0 18.7917,0.24862 25.4648,2.34401 16.4117,5.15348 25.8861,12.04506 31.0892,22.61419 5.1678,10.49729 5.8723,17.68695 5.9111,60.33121 0.021,22.48056 0.5124,42.29871 1.1915,48 0.6362,5.34083 1.1987,10.83559 1.25,12.21059 l 0.093,2.5 -18.4266,0.27324 c -13.192,0.19562 -18.6309,-0.0573 -19.1457,-0.89017 -0.3954,-0.63988 -1.0293,-4.47533 -1.4087,-8.52324 -0.3793,-4.04791 -0.9425,-7.35983 -1.2516,-7.35983 -0.309,0 -3.1723,2.63489 -6.3629,5.8553 -3.823,3.85876 -8.4613,7.18332 -13.6028,9.75 l -7.8017,3.8947 -14,0.22979 c -9.8317,0.16137 -15.5629,-0.20464 -19.2493,-1.22934 z m 41.3049,-27.87415 c 2.7806,-1.29479 6.703,-4.27871 8.7164,-6.63094 5.2253,-6.10464 7.0282,-12.41539 7.137,-24.98208 L 3010.5,925.5 l -5.8966,-0.30428 c -19.0686,-0.98398 -36.3721,7.10653 -39.5313,18.4835 -1.4278,5.14185 -1.3471,7.28977 0.4667,12.43088 4.1997,11.9032 17.149,17.0425 29.0168,11.5162 z M 3236,995.43992 c -20.2611,-4.36727 -36.8838,-20.86509 -43.8017,-43.47263 -4.5964,-15.02076 -5.3187,-38.61097 -1.6831,-54.96729 3.4769,-15.64231 13.4548,-30.66711 26.1067,-39.3118 21.2561,-14.52366 54.2755,-15.30139 75.1009,-1.7689 13.9155,9.04242 21.8603,21.75805 23.0119,36.8307 l 0.554,7.25 -20.577,0 c -22.9146,0 -20.8245,0.70072 -22.2062,-7.44477 -0.939,-5.53523 -4.8419,-12.81902 -8.5331,-15.92497 -2.5422,-2.13918 -4.1477,-2.63026 -8.5988,-2.63026 -6.7885,0 -10.55,1.88043 -14.4041,7.20074 -5.5243,7.62615 -7.212,15.23417 -7.7246,34.8217 -0.674,25.75826 2.7371,41.11478 10.7382,48.34333 11.5233,10.41063 25.5002,2.48858 29.2758,-16.59346 L 3274.5,941.5 l 20.5,0 20.5,0 -0.267,6 c -1.0156,22.82068 -17.2844,42.00212 -40.6931,47.97838 -7.552,1.92803 -29.5185,1.90611 -38.5399,-0.0385 z m 920.776,-0.91911 c -9.9326,-2.73405 -17.9744,-9.32887 -21.9748,-18.02081 -2.2711,-4.93468 -2.3077,-5.60743 -2.8012,-51.5 l -0.5,-46.5 -13.5,-0.5 -13.5,-0.5 0,-13.5 0,-13.5 11.5,-0.24594 c 17.6049,-0.37651 16,1.14671 16,-15.18569 l 0,-13.89352 6.75,-2.57721 c 18.1734,-6.93879 33.8261,-12.35669 34.5,-11.94159 0.4125,0.25409 0.75,9.60533 0.75,20.78052 0,15.61553 0.3057,20.57226 1.3208,21.41468 0.8019,0.66551 7.5788,1.20469 17.25,1.37245 l 15.9292,0.2763 0,13.5 0,13.5 -16.737,0.27412 c -16.7168,0.27379 -16.7377,0.277 -17.3372,2.6656 -0.3301,1.31531 -0.4448,18.51695 -0.2548,38.22588 0.3074,31.89083 0.539,36.1902 2.1041,39.06747 2.957,5.43578 6.6755,6.74267 19.7249,6.93236 l 11.5,0.16716 0.278,12.93801 c 0.2113,9.83341 -0.042,13.20357 -1.0554,14.04466 -4.3562,3.6153 -39.6886,5.52922 -49.9466,2.70555 z M 1596.4955,992.84024 C 1596.2145,992.10311 1596.1006,945.6 1596.2423,889.5 l 0.2577,-102 41.5,-0.28575 c 43.9971,-0.30294 51.2464,0.15751 67.7891,4.30573 42.6968,10.70659 66.1961,44.83621 66.2077,96.15766 0.01,22.97556 -3.1023,38.48455 -11.0703,55.25074 -9.9389,20.91321 -26.8122,36.87613 -46.9825,44.44747 -14.9141,5.59829 -17.7252,5.85621 -69.1908,6.3482 -39.307,0.37576 -47.837,0.21953 -48.2577,-0.88381 z m 87.2851,-34.39857 c 19.3868,-3.61346 32.7451,-17.83557 39.3942,-41.94167 1.9132,-6.93616 2.2145,-10.59311 2.2659,-27.5 0.047,-15.62487 -0.2905,-20.79171 -1.7009,-26 C 1719.2454,846.40311 1709.4234,833.24038 1697,827.16525 1687.6566,822.59626 1677.6934,821 1658.519,821 c -13.9456,0 -16.3929,0.2289 -16.912,1.58179 -0.8882,2.31463 -0.713,134.70334 0.1801,136.10804 1.5728,2.47359 28.2362,2.31602 41.9935,-0.24816 z m 122.7187,33.32777 c -0.3017,-1.24819 -0.425,-47.71944 -0.2739,-103.26944 l 0.2746,-101 66.75,-0.25709 66.75,-0.25709 0,16.50709 c 0,9.0789 -0.1125,16.60774 -0.25,16.73075 -0.1375,0.12301 -20.05,0.46051 -44.25,0.75 l -44,0.52634 0,24.5 0,24.5 41,0.5 41,0.5 0,17 0,17 -41,0.5 -41,0.5 -0.5,43.5 -0.5,43.5 -21.7261,0.26944 -21.726,0.26943 -0.5486,-2.26943 z m 463.9691,1.00013 C 2270.2023,992.07131 2270.1006,945.375 2270.2423,889 l 0.2577,-102.5 55,0 c 53.9384,0 55.1641,0.0436 63.5,2.2604 12.3684,3.28913 18.5782,6.67593 26.2578,14.32091 14.5905,14.52482 19.2493,37.12469 11.7724,57.10852 -4.2048,11.23835 -15.9454,22.2383 -28.956,27.12939 -3.4128,1.28297 -6.1201,2.7485 -6.0164,3.25673 0.1038,0.50823 2.8235,1.64527 6.0437,2.52676 10.158,2.78061 16.5347,8.2845 20.7991,17.95234 2.1932,4.97202 3.6534,12.87453 8.0343,43.48127 1.8377,12.83873 4.0094,23.94481 5.5729,28.5 1.409,4.10502 2.8236,8.25118 3.1436,9.21368 0.5432,1.63372 -0.9888,1.75 -23.0562,1.75 -23.5728,0 -23.6406,-0.006 -24.563,-2.25 -0.5087,-1.2375 -2.7607,-15.525 -5.0043,-31.75 -2.2436,-16.225 -4.5503,-31.61926 -5.1259,-34.20946 -1.3291,-5.98046 -4.45,-10.61918 -8.9054,-13.23647 C 2365.7213,910.63 2363.9178,910.5 2340.5,910.5 l -25,0 -0.5,41.5 -0.5,41.5 -21.7739,0.26957 c -16.8763,0.20893 -21.8827,-0.016 -22.2577,-1 z m 95.8698,-118.04149 c 10.3832,-4.59818 16.6238,-13.46446 17.4325,-24.76732 0.9533,-13.323 -4.0208,-22.95043 -14.532,-28.12701 -4.5816,-2.2564 -5.5673,-2.33375 -29.7387,-2.33375 l -25,0 -0.2665,27.48581 c -0.1466,15.11719 -0.032,28.09615 0.254,28.84214 0.8394,2.1874 46.6205,1.21629 51.8507,-1.09987 z m 724.2088,117.04214 c -0.2757,-1.24862 -0.6241,-34.10783 -0.7741,-73.02046 l -0.2729,-70.75023 18.691,2.3e-4 c 10.537,1.4e-4 18.9435,0.4088 19.2698,0.93676 0.3183,0.51508 0.8636,5.91508 1.2118,12 0.3481,6.08491 0.9953,11.06348 1.438,11.06348 0.4428,0 1.9878,-2.01812 3.4333,-4.4847 7.0482,-12.02689 22.0078,-19.5153 38.9856,-19.5153 3.8708,0 5.4165,0.417 5.8635,1.58179 0.3339,0.86998 0.607,8.70818 0.607,17.41821 0,8.71003 -0.2731,16.54823 -0.607,17.41821 -0.4932,1.28528 -2.348,1.58179 -9.8947,1.58179 -16.6243,0 -27.4816,5.23664 -32.6604,15.75267 -2.3156,4.702 -2.3427,5.16265 -2.8379,48.24733 l -0.5,43.5 -20.7259,0.27022 -20.7258,0.27021 -0.5013,-2.27021 z m 246.9139,0.97978 c -0.262,-0.6875 -0.3603,-47.15 -0.2186,-103.25 l 0.2577,-102 20.5,0 20.5,0 0.2514,38 c 0.1383,20.9 0.4847,38.62251 0.7698,39.38335 0.3584,0.95637 2.3526,-0.3662 6.461,-4.28494 10.4631,-9.98017 23.1866,-14.30776 39.0178,-13.27099 19.167,1.25523 35.9439,11.48916 42.4915,25.91994 5.1589,11.36995 5.5808,17.02127 5.2829,70.75264 l -0.2744,49.5 -20.5,0 -20.5,0 -0.5,-49.5 -0.5,-49.5 -3,-5.95656 c -1.6958,-3.36712 -4.6687,-7.27813 -6.8386,-8.99661 -3.4151,-2.70456 -4.7195,-3.08005 -11.8202,-3.40251 -13.2174,-0.60024 -22.1241,4.39073 -26.9717,15.11404 L 3379.5,896.5 3379.441,944 c -0.033,26.125 -0.1451,48.0625 -0.25,48.75 -0.1454,0.95322 -5.0654,1.25 -20.7221,1.25 -15.5044,0 -20.648,-0.30605 -21.0077,-1.25 z m 609.1297,0.39659 c -0.3886,-0.62879 -0.9131,-124.35098 -0.61,-143.89659 0.015,-0.95746 4.675,-1.25 19.9124,-1.25 17.2173,0 19.9747,0.21276 20.5,1.58179 0.3339,0.86998 0.6139,4.80748 0.6223,8.75 0.022,10.14841 0.7795,10.72622 5.9795,4.5593 8.618,-10.22044 21.9594,-16.54764 37.0653,-17.57842 21.1531,-1.4434 38.8629,6.68466 46.7316,21.44786 6.4281,12.0604 6.4688,12.46997 6.9576,70.03611 0.2443,28.76315 0.1648,53.40957 -0.1766,54.76981 l -0.6208,2.47319 -21.2259,-0.26982 -21.226,-0.26982 -0.5,-51 -0.5,-51 -2.7766,-4.72342 c -7.258,-12.34714 -26.4333,-14.35756 -37.9243,-3.97615 -3.946,3.56504 -6.1303,6.96495 -8.1214,12.64115 -0.6729,1.91834 -1.2788,20.76486 -1.6253,50.55842 l -0.5524,47.5 -20.6786,0.27007 c -11.3968,0.14885 -20.9264,-0.13101 -21.2308,-0.62348 z m 444.0761,0.18674 c -0.3667,-0.36666 -0.7025,-29.05416 -0.7462,-63.75 -0.044,-34.69583 -0.3904,-66.82404 -0.7703,-71.39602 -0.3799,-4.57197 -0.4238,-8.7447 -0.097,-9.27271 0.3551,-0.57455 8.1931,-0.85053 19.5203,-0.68732 L 4427.5,848.5 l 0.8962,11.75 c 0.4929,6.4625 1.2376,11.75 1.655,11.75 0.4173,0 1.915,-1.9729 3.3281,-4.38423 C 4440.4275,855.58898 4455.574,848 4472.5295,848 c 3.8708,0 5.4165,0.417 5.8635,1.58179 0.866,2.25661 0.724,33.68944 -0.1583,35.05676 -0.4496,0.69674 -5.1973,1.31036 -12.2347,1.5813 -8.777,0.3379 -12.5899,0.9329 -16.1029,2.51286 -6.3758,2.86745 -11.8471,7.93873 -14.3139,13.26729 -1.9907,4.30009 -2.0945,6.34366 -2.338,46 -0.1401,22.825 -0.4862,42.5125 -0.769,43.75 -0.5126,2.24262 -0.581,2.25 -20.8286,2.25 -11.1728,0 -20.6143,-0.3 -20.9809,-0.66667 z m 190.8022,-0.56255 C 4581.2026,992.07185 4581.1006,945.375 4581.2423,889 l 0.2577,-102.5 35.6172,-0.26249 c 27.7251,-0.20432 35.8472,0.0173 36.6554,1 0.571,0.69437 8.9877,28.48749 18.7038,61.76249 9.7161,33.275 19.2885,66.02337 21.2721,72.77416 2.0412,6.94661 4.0709,12.11938 4.6763,11.91758 0.5883,-0.19612 11.2656,-32.7117 23.7272,-72.25685 12.4617,-39.54514 23.1578,-72.70138 23.7693,-73.68052 1.0367,-1.65991 3.4596,-1.76247 35.8453,-1.51731 L 4816.5,786.5 l 0,103.5 0,103.5 -21.4284,0.27041 c -16.4752,0.2079 -21.6147,-0.0232 -22.2347,-1 -0.4434,-0.69873 -0.8132,-39.49791 -0.8216,-86.22041 -0.011,-59.92008 -0.3281,-84.6372 -1.0769,-83.88839 -0.5839,0.58389 -5.2585,14.28639 -10.388,30.45 -25.7778,81.22806 -43.8817,137.56988 -44.7156,139.16077 -0.8458,1.61335 -2.561,1.74793 -19.117,1.5 l -18.1879,-0.27238 -22.1752,-71 c -12.1963,-39.05 -24.2601,-77.6375 -26.8084,-85.75 -2.5482,-8.1125 -5.0611,-14.75 -5.5842,-14.75 -0.5919,0 -1.0474,32.37675 -1.2065,85.75 l -0.2556,85.75 -20.2734,0.27078 c -15.6747,0.20936 -20.3833,-0.0175 -20.7577,-1 z m 257.0749,0.30007 c -0.6288,-1.01741 61.7677,-174.1732 64.0775,-177.82085 1.4066,-2.22123 1.7042,-2.25 23.2793,-2.25 16.3846,0 22.1169,0.31614 22.9028,1.26311 1.2643,1.52344 62.1966,176.20573 62.1966,178.30695 0,1.25571 -2.8289,1.43304 -19.1672,1.20153 l -19.1672,-0.27159 -6.0828,-18.02291 c -3.3456,-9.9126 -6.4469,-18.5751 -6.8918,-19.25 -1.2147,-1.84236 -69.9998,-1.76487 -71.5314,0.0806 -0.5969,0.71921 -3.4006,8.03171 -6.2305,16.25 -2.8299,8.21828 -5.7487,16.40483 -6.4862,18.19233 l -1.3408,3.25 -17.4921,0 c -9.6934,0 -17.748,-0.41425 -18.0662,-0.92915 z m 110.0847,-68.54521 c 0.4281,-1.11542 -10.8201,-37.31241 -22.1488,-71.27564 -0.6576,-1.97142 -2.4324,-1.46166 -3.4816,1 -3.678,8.6291 -24.0049,69.28996 -23.585,70.38407 0.8092,2.10872 48.4049,2.00387 49.2154,-0.10843 z m 99.0382,68.80769 c -0.3667,-0.36666 -0.6667,-33.80166 -0.6667,-74.3 0,-55.93703 -0.2884,-73.92173 -1.2,-74.83333 -0.8713,-0.87132 -8.2667,-1.2 -27,-1.2 l -25.8,0 0,-14.39301 c 0,-12.20205 0.2408,-14.48541 1.5818,-15 0.87,-0.33385 33.405,-0.60699 72.3,-0.60699 53.6697,0 71.0075,0.28929 71.9182,1.2 1.363,1.36302 1.7012,25.46274 0.3864,27.53271 -0.5803,0.91352 -7.5028,1.30192 -26.7347,1.5 L 5086.5,843.5 l -0.5159,75 c -0.2838,41.25 -0.6213,75.1125 -0.75,75.25 -0.553,0.59061 -36.964,0.18677 -37.5674,-0.41667 z m 113,0 C 5160.3,992.96667 5160,952.51481 5160,903.44032 c 0,-80.44026 0.1558,-89.28611 1.5818,-89.83333 3.1122,-1.19428 34.9522,-0.67295 36.2182,0.59301 0.8874,0.88737 1.2,10.26962 1.2,36.0133 l 0,34.8133 33.75,-0.2633 33.75,-0.2633 0.2632,-34.94913 c 0.199,-26.43218 0.5646,-35.14057 1.5,-35.73469 2.1046,-1.33672 36.1645,-0.98845 37.5368,0.38382 0.9154,0.9154 1.1964,22.08276 1.1847,89.25 -0.01,48.4275 -0.379,88.62296 -0.8234,89.32324 -0.6171,0.9724 -5.1619,1.20868 -19.2347,1 L 5268.5,993.5 l -0.5295,-39 c -0.2911,-21.45 -0.6286,-39.11849 -0.75,-39.2633 -0.1213,-0.14482 -15.408,-0.14482 -33.9705,0 l -33.75,0.2633 -0.5295,39 c -0.2911,21.45 -0.6286,39.1125 -0.75,39.25 -0.5212,0.59085 -36.9505,0.18666 -37.5538,-0.41667 z m 182.0076,0.008 C 5342.3034,992.9701 5342,952.51481 5342,903.44032 c 0,-80.44026 0.1558,-89.28611 1.5818,-89.83333 0.87,-0.33385 27.78,-0.60699 59.8,-0.60699 43.9475,0 58.5123,0.29415 59.4182,1.2 1.3652,1.3652 1.7002,25.46424 0.3828,27.53848 -0.5996,0.94406 -10.4025,1.30066 -41.2347,1.5 L 5381.5,843.5 l 0,21 0,21 38,0.5 38,0.5 0.2774,14.23809 0.2774,14.23809 -38.2774,0.26191 -38.2774,0.26191 0,24 0,24 42,0.5 42,0.5 0,14.5 0,14.5 -61.0757,0.25762 c -33.5917,0.14169 -61.3792,-0.0458 -61.75,-0.41667 z m 347.9924,-0.008 C 5690.3,992.96667 5690,952.51481 5690,903.44032 c 0,-80.44026 0.1558,-89.28611 1.5818,-89.83333 0.87,-0.33385 13.224,-0.60699 27.4533,-0.60699 25.6748,0 25.8841,0.0171 27.5195,2.25 0.9064,1.2375 15.9407,32.15441 33.4095,68.70425 17.4688,36.54984 32.2732,66.62484 32.8987,66.83334 0.8422,0.28075 1.1372,-17.38182 1.1372,-68.09727 0,-63.18907 0.1296,-68.52609 1.6789,-69.12061 0.9235,-0.35435 9.0235,-0.58798 18,-0.51917 l 16.3211,0.1251 0,90.42852 0,90.42851 -26.6855,-0.26634 -26.6854,-0.26633 -33.605,-71.7404 c -18.4827,-39.45723 -34.1492,-72.28473 -34.8145,-72.95 -0.9461,-0.94613 -1.2096,14.38994 -1.2096,70.40861 0,39.39002 -0.2731,72.33002 -0.607,73.2 -0.521,1.35768 -3.0476,1.58179 -17.8333,1.58179 -9.4745,0 -17.5264,-0.3 -17.893,-0.66667 z"
     id="path3031"
     style="fill:#114679;fill-opacity:1" />
</svg>
