<?xml version="1.0" encoding="UTF-8"?>
<svg xmlns="http://www.w3.org/2000/svg" xmlns:xlink="http://www.w3.org/1999/xlink" width="1384.8pt" height="1026.16pt" viewBox="0 0 1384.8 1026.16" version="1.1">
<g id="surface1">
<path style=" stroke:none;fill-rule:evenodd;fill:rgb(63.180542%,15.54718%,15.447998%);fill-opacity:1;" d="M 296.570312 610.800781 L 266.398438 941.996094 L 556.796875 941.996094 L 590.320312 610.800781 Z M 653.875 610.800781 C 649.210938 658.503906 644.683594 707.988281 640.796875 755.996094 C 617.996094 1042.796875 875.996094 1025.996094 937.195312 1025.996094 C 937.195312 1025.996094 955.230469 821.726562 973.816406 610.800781 Z M 1012.578125 610.800781 L 976.796875 1025.996094 C 1039.199219 1025.996094 1272 1012.796875 1320 766.800781 C 1324.71875 721.550781 1330.269531 667.902344 1336.101562 610.796875 L 1292.210938 610.800781 C 1292.601562 614.671875 1292.671875 618.679688 1292.398438 622.800781 C 1287.601562 663.597656 1263.601562 687.597656 1221.601562 685.199219 L 1120.800781 681.597656 L 1126.800781 646.800781 L 1177.199219 646.800781 L 1177.199219 644.398438 C 1168.800781 639.597656 1167.601562 628.800781 1167.601562 615.597656 C 1167.648438 613.972656 1167.78125 612.371094 1167.96875 610.792969 Z M 1203.609375 610.800781 C 1201.589844 614.628906 1200.308594 618.753906 1200 622.800781 C 1197.601562 639.597656 1209.601562 650.398438 1225.199219 653.996094 C 1243.199219 653.996094 1257.601562 641.996094 1260 625.199219 C 1260 620.167969 1259.148438 615.226562 1257.601562 610.804688 L 1203.609375 610.800781 "/>
<path style=" stroke:none;fill-rule:evenodd;fill:rgb(63.180542%,15.54718%,15.447998%);fill-opacity:1;" d="M 590.320312 610.800781 L 616.796875 349.199219 L 320.398438 349.199219 L 296.570312 610.800781 Z M 973.816406 610.800781 C 990.785156 418.207031 1008.210938 220.0625 1012.800781 166.800781 C 1018.800781 73.199219 950.398438 0 872.398438 0 L 139.199219 0 C 46.800781 0 0 73.199219 0 159.601562 C 0 212.398438 37.199219 313.199219 156 313.199219 L 686.398438 313.199219 C 686.398438 313.199219 669.378906 452.191406 653.875 610.789062 Z M 1167.96875 610.800781 C 1171.828125 578.609375 1202.820312 556.800781 1236 556.800781 C 1266.808594 558.925781 1289.160156 580.8125 1292.210938 610.796875 L 1336.101562 610.800781 C 1358.398438 392.253906 1384.800781 122.964844 1384.800781 79.199219 L 1058.398438 79.199219 L 1012.578125 610.789062 Z M 1257.601562 610.800781 C 1253.578125 599.398438 1244.839844 591.40625 1233.601562 593.996094 C 1221.148438 591.332031 1209.371094 599.859375 1203.609375 610.800781 Z M 1209.601562 200.398438 L 1225.199219 202.800781 L 1225.199219 200.398438 C 1212 192 1209.601562 178.800781 1209.601562 170.398438 C 1215.601562 135.601562 1233.601562 130.800781 1264.800781 130.800781 L 1335.601562 130.800781 L 1333.199219 165.601562 L 1264.800781 165.601562 C 1249.199219 165.601562 1243.199219 174 1242 182.398438 C 1242 194.398438 1245.601562 200.398438 1260 200.398438 L 1329.601562 202.800781 L 1327.199219 237.601562 L 1206 234 Z M 1224 429.597656 L 1263.601562 505.199219 C 1268.398438 500.398438 1274.398438 493.199219 1274.398438 487.199219 C 1274.398438 472.800781 1270.800781 454.800781 1260 445.199219 L 1291.199219 434.398438 C 1297.199219 450 1308 468 1308 489.597656 C 1303.199219 524.398438 1264.800781 548.398438 1238.398438 548.398438 C 1201.199219 548.398438 1177.199219 518.398438 1178.398438 483.597656 C 1179.601562 460.800781 1197.601562 439.199219 1224 429.597656 Z M 1309.199219 423.597656 L 1190.398438 420 L 1196.398438 388.800781 L 1215.601562 388.800781 C 1196.398438 382.800781 1194 375.597656 1194 356.398438 L 1225.199219 356.398438 C 1224 375.597656 1231.199219 385.199219 1249.199219 385.199219 L 1312.800781 387.597656 Z M 1155.601562 342 L 1156.800781 306 L 1316.398438 308.398438 L 1314 344.398438 Z M 1204.800781 250.800781 L 1323.601562 256.800781 L 1322.398438 291.597656 L 1201.199219 286.800781 Z M 1158 286.800781 L 1164 253.199219 L 1197.601562 253.199219 L 1194 286.800781 Z M 1242 516 L 1216.800781 471.597656 C 1212 472.800781 1212 478.800781 1209.601562 487.199219 C 1206 500.398438 1221.601562 516 1236 516 L 1242 516 "/>
</g>
</svg>
